<svg xmlns="http://www.w3.org/2000/svg" width="1324" height="385" fill="none" viewBox="0 0 1324 385"><path fill="#fff" d="M913.841 326.453q-15.073 0-27.526-4.369-10.958-3.913-19.811-10.456c-1.257-.928-1.796-2.532-1.423-4.049l3.832-15.583c.822-3.341 5.355-4.256 7.817-1.852q5.06 4.941 11.77 8.564 10.923 5.9 25.122 5.899 22.065 0 35.609-13.326 13.764-13.326 13.763-34.298v-6.291c0-3.563-4.448-5.483-7.318-3.37q-6.109 4.497-13.435 7.695-11.797 5.024-25.342 5.024-17.913 0-32.769-8.957-14.854-9.174-23.812-24.467-8.738-15.292-8.738-33.861 0-18.57 8.738-33.861 8.958-15.292 23.812-24.249 14.856-9.175 32.769-9.175 13.545 0 25.342 5.024 7.278 3.043 13.353 7.53c2.886 2.131 7.4.211 7.4-3.377v-3.43a4 4 0 0 1 4-4h13.846a4 4 0 0 1 4 4v127.076q0 21.408-10.049 36.701-9.83 15.291-25.997 23.375-16.165 8.082-34.953 8.083m6.117-87.821q12.452 0 22.501-6.117 10.268-6.335 16.166-16.602 6.117-10.486 6.117-23.157t-6.117-22.938q-5.898-10.486-16.166-16.603-10.049-6.335-22.501-6.335t-22.72 6.335q-10.049 6.117-16.166 16.603-5.898 10.268-5.898 22.938t5.898 23.157q6.117 10.267 16.166 16.602 10.267 6.117 22.72 6.117M736.698 331.932a2.74 2.74 0 0 1-2.741-2.741v-50.64a2.74 2.74 0 0 1 2.741-2.741h4.731c1.039 0 1.882.842 1.882 1.882 0 1.857 2.682 2.783 4.13 1.62a18.8 18.8 0 0 1 3.633-2.286q4.771-2.338 10.009-2.338 5.706 0 10.476 2.712a20 20 0 0 1 5.044 3.91c1.38 1.477 3.926 1.513 5.331.06a20.4 20.4 0 0 1 5.713-4.157 25.1 25.1 0 0 1 11.038-2.525q6.36 0 11.598 2.993 5.332 2.993 8.419 8.418 3.18 5.331 3.18 12.628v30.464a2.74 2.74 0 0 1-2.741 2.741h-4.62a2.74 2.74 0 0 1-2.741-2.741v-29.248q0-7.67-4.396-11.599-4.303-4.022-10.009-4.022-3.554 0-6.921 1.59-3.274 1.59-5.426 4.957-2.057 3.367-2.057 8.793v29.529a2.74 2.74 0 0 1-2.742 2.741h-4.619a2.74 2.74 0 0 1-2.741-2.741v-29.248q0-5.332-2.152-8.793-2.058-3.46-5.425-5.144-3.274-1.778-6.828-1.778-3.461 0-6.828 1.59-3.274 1.591-5.426 4.958-2.151 3.368-2.151 8.886v29.529a2.74 2.74 0 0 1-2.741 2.741zM690.398 333.055q-8.138 0-14.872-3.929-6.735-3.928-10.757-10.57-3.929-6.64-3.929-14.685 0-8.137 3.929-14.685 4.022-6.642 10.757-10.57t14.872-3.928q8.232 0 14.873 3.928 6.734 3.928 10.663 10.57 4.022 6.548 4.022 14.685 0 8.044-4.022 14.685-3.929 6.642-10.663 10.57-6.641 3.929-14.873 3.929m0-9.541q5.426 0 9.821-2.619 4.397-2.712 7.016-7.109 2.619-4.49 2.619-9.915t-2.619-9.821q-2.62-4.49-7.016-7.109-4.395-2.713-9.821-2.713-5.425 0-9.821 2.713-4.397 2.62-7.016 7.109-2.619 4.396-2.619 9.821 0 5.426 2.619 9.915 2.62 4.397 7.016 7.109 4.396 2.619 9.821 2.619M631.657 333.055q-8.231 0-14.966-3.929t-10.757-10.57-4.022-14.685 4.022-14.685q4.022-6.642 10.757-10.57t14.966-3.928q6.08 0 11.411 2.151 4.512 1.82 8.086 4.646c.798.63 1.118 1.678.878 2.666l-.931 3.836c-.602 2.482-4.407 3.085-6.317 1.388a23 23 0 0 0-2.558-1.966q-4.677-3.181-10.663-3.181-5.426 0-9.915 2.713-4.396 2.62-7.015 7.109-2.619 4.396-2.619 9.821 0 5.332 2.619 9.822t7.015 7.202q4.49 2.619 9.915 2.619 5.986 0 10.663-3.087a21.4 21.4 0 0 0 2.498-1.882c1.935-1.7 5.813-1.114 6.421 1.389l.887 3.658c.24.987-.08 2.035-.878 2.665q-3.574 2.826-8.086 4.646-5.331 2.152-11.411 2.152M584.233 333.055q-3.087 0-5.238-2.058-2.058-2.151-2.058-5.238t2.058-5.145q2.151-2.151 5.238-2.151 3.18 0 5.238 2.151 2.058 2.058 2.058 5.145t-2.058 5.238q-2.058 2.058-5.238 2.058M707.465 258.294a4 4 0 0 1-4-4V131.218a4 4 0 0 1 4-4h13.846a4 4 0 0 1 4 4v3.199c0 4.022 5.893 5.935 8.852 3.211a47.6 47.6 0 0 1 9.717-6.914q11.578-6.117 24.904-6.117 13.982 0 25.778 6.99 12.015 6.773 19.443 19.88 7.428 12.89 7.428 31.458v71.369a4 4 0 0 1-4 4h-15.594a4 4 0 0 1-4-4v-68.092q0-15.51-9.394-27.307-9.175-12.015-25.996-12.016-13.764 0-24.686 10.05-10.704 9.83-10.705 28.618v68.747a4 4 0 0 1-4 4zM593.717 260.041q-17.914 0-32.769-8.957-14.856-9.174-23.812-24.467-8.739-15.292-8.739-33.861 0-18.57 8.739-33.861 8.956-15.292 23.812-24.249 14.855-9.175 32.769-9.175 13.543 0 25.341 5.024 7.278 3.043 13.354 7.53c2.886 2.131 7.4.211 7.4-3.377v-3.43a4 4 0 0 1 4-4h13.845a4 4 0 0 1 4 4v123.076a4 4 0 0 1-4 4h-13.845a4 4 0 0 1-4-4v-3.602c0-3.563-4.449-5.483-7.318-3.37q-6.109 4.497-13.436 7.695-11.798 5.024-25.341 5.024m3.058-21.409q12.453 0 22.501-6.117 10.268-6.335 16.166-16.602 6.117-10.486 6.117-23.157t-6.117-22.938q-5.898-10.486-16.166-16.603-10.048-6.335-22.501-6.335-12.452 0-22.72 6.335-10.049 6.117-16.166 16.603-5.898 10.268-5.898 22.938t5.898 23.157q6.117 10.267 16.166 16.602 10.268 6.117 22.72 6.117M457.842 257.352c-1.453 3.022-5.756 3.022-7.209 0l-59.831-124.4c-1.277-2.656.658-5.734 3.605-5.734h17.966a4 4 0 0 1 3.621 2.301l25.573 54.499a453 453 0 0 1 6.991 15.073 104 104 0 0 1 2.147 5.282c1.403 3.728 7.119 3.775 8.548.057a119 119 0 0 1 2.194-5.339q3.495-7.646 6.99-15.073l25.788-54.51a4 4 0 0 1 3.615-2.29h16.228c2.947 0 4.882 3.078 3.605 5.734zM296.647 260.041q-17.914 0-32.769-8.957-14.856-9.174-23.812-24.467-8.739-15.292-8.739-33.861 0-18.57 8.739-33.861 8.956-15.292 23.812-24.249 14.855-9.175 32.769-9.175 13.543 0 25.341 5.024 7.278 3.043 13.354 7.53c2.886 2.131 7.399.211 7.399-3.377v-3.43a4 4 0 0 1 4-4h13.846a4 4 0 0 1 4 4v123.076a4 4 0 0 1-4 4h-13.846a4 4 0 0 1-4-4v-3.602c0-3.563-4.448-5.483-7.317-3.37q-6.109 4.497-13.436 7.695-11.798 5.024-25.341 5.024m3.058-21.409q12.452 0 22.501-6.117 10.268-6.335 16.166-16.602 6.117-10.486 6.117-23.157t-6.117-22.938q-5.898-10.486-16.166-16.603-10.049-6.335-22.501-6.335t-22.72 6.335q-10.049 6.117-16.166 16.603-5.898 10.268-5.898 22.938t5.898 23.157q6.117 10.267 16.166 16.602 10.268 6.117 22.72 6.117M179.068 258.294a4 4 0 0 1-4-4V131.218a4 4 0 0 1 4-4h15.593a4 4 0 0 1 4 4v123.076a4 4 0 0 1-4 4zm7.796-154.669q-6.554 0-11.141-4.588-4.588-4.587-4.588-11.141 0-6.773 4.588-11.142 4.587-4.587 11.141-4.588 6.772 0 11.142 4.588 4.587 4.37 4.587 11.142 0 6.554-4.587 11.141-4.37 4.587-11.142 4.588M62.26 326.453q-15.073 0-27.525-4.369-10.958-3.913-19.811-10.456c-1.257-.928-1.796-2.532-1.423-4.049l3.832-15.583c.822-3.341 5.355-4.256 7.816-1.852q5.062 4.941 11.77 8.564 10.924 5.9 25.123 5.899 22.065 0 35.61-13.326 13.761-13.326 13.762-34.298v-6.291c0-3.563-4.448-5.483-7.318-3.37q-6.107 4.497-13.436 7.695-11.796 5.024-25.34 5.024-17.914 0-32.77-8.957-14.854-9.174-23.812-24.467Q0 211.325 0 192.756q0-18.57 8.738-33.861 8.958-15.292 23.812-24.249 14.856-9.175 32.77-9.175 13.544 0 25.34 5.024 7.28 3.043 13.354 7.53c2.886 2.131 7.4.211 7.4-3.377v-3.43a4 4 0 0 1 4-4h13.846a4 4 0 0 1 4 4v127.076q0 21.408-10.049 36.701-9.83 15.291-25.997 23.375-16.166 8.082-34.953 8.083m6.118-87.821q12.452 0 22.5-6.117 10.269-6.335 16.167-16.602 6.117-10.486 6.117-23.157t-6.117-22.938q-5.898-10.486-16.166-16.603-10.05-6.335-22.501-6.335-12.453 0-22.72 6.335-10.05 6.117-16.166 16.603-5.898 10.268-5.898 22.938t5.898 23.157q6.117 10.267 16.166 16.602 10.267 6.117 22.72 6.117"/><path fill="url(#a)" d="M1236.91 45.404c48.05 0 87 38.951 87 87v120.042c0 48.049-38.95 87-87 87h-120.04c-48.05 0-87-38.951-87-87V132.404c0-23.614 9.41-45.031 24.68-60.707v182.749a4 4 0 0 0 4 4h15.59a4 4 0 0 0 4-4v-68.747q0-18.787 10.71-28.618c7.28-6.699 15.51-10.049 24.68-10.049 11.22 0 19.88 4.005 26 12.015q9.39 11.797 9.39 27.307v45.092c0 .669.17 1.299.46 1.854.33 2.227.9 4.417 1.71 6.529a30.9 30.9 0 0 0 6.67 10.406 30.7 30.7 0 0 0 22.36 9.288 30.736 30.736 0 0 0 22.14-9.787 30.9 30.9 0 0 0 6.43-10.552 31 31 0 0 0 1.56-6.548c.12-.376.18-.776.18-1.19v-.698c.08-1.261.09-2.529.01-3.796h-.01v-41.253q0-18.787 10.71-28.618c7.28-6.699 15.51-10.049 24.68-10.049 11.22 0 19.88 4.005 26 12.015q9.39 11.797 9.39 27.307v68.092c0 2.209 1.8 4 4 4h15.6a4 4 0 0 0 4-4v-71.368c0-12.379-2.48-22.866-7.43-31.459q-7.425-13.107-19.44-19.879c-7.87-4.66-16.46-6.991-25.78-6.991-8.88 0-17.19 2.039-24.9 6.117a47.2 47.2 0 0 0-9.72 6.914c-2.96 2.724-8.85.811-8.85-3.211v-3.198c0-2.209-1.8-4-4-4h-13.85a4 4 0 0 0-4 4v100.243a7.4 7.4 0 0 1-1.5 2.374c-.7.755-1.55 1.36-2.49 1.777a7.62 7.62 0 0 1-6 .067 7.63 7.63 0 0 1-4.33-4.722v-48.032c0-12.379-2.48-22.866-7.43-31.459q-7.425-13.107-19.44-19.879c-7.87-4.66-16.46-6.991-25.78-6.991-8.3 0-16.09 1.821-23.38 5.462a49 49 0 0 0-10.02 6.641c-2.95 2.523-8.33.613-8.33-3.266V54.477c11.67-5.807 24.82-9.073 38.73-9.073z"/><defs><linearGradient id="a" x1="1087.95" x2="1287.85" y1="45.404" y2="326.855" gradientUnits="userSpaceOnUse"><stop stop-color="#fff9ed"/><stop offset=".433" stop-color="#ffc955"/><stop offset="1" stop-color="#875c00"/></linearGradient></defs></svg>