<svg width="152" height="44" viewBox="0 0 152 44" fill="none" xmlns="http://www.w3.org/2000/svg">
<path d="M104.48 37.3234C103.331 37.3234 102.282 37.1569 101.333 36.8239C100.4 36.4908 99.5676 36.0329 98.8349 35.4502L99.5842 32.403C100.084 33.119 100.75 33.7018 101.582 34.1514C102.415 34.601 103.372 34.8258 104.455 34.8258C106.136 34.8258 107.493 34.3179 108.526 33.3022C109.575 32.2865 110.099 30.9794 110.099 29.3809V27.5576C109.433 28.2236 108.642 28.7565 107.727 29.1561C106.827 29.5391 105.862 29.7306 104.829 29.7306C103.464 29.7306 102.215 29.3892 101.083 28.7065C99.9506 28.0072 99.0431 27.0747 98.3604 25.9092C97.6944 24.7436 97.3613 23.4531 97.3613 22.0378C97.3613 20.6225 97.6944 19.332 98.3604 18.1665C99.0431 17.0009 99.9506 16.0768 101.083 15.3941C102.215 14.6947 103.464 14.3451 104.829 14.3451C105.862 14.3451 106.827 14.5366 107.727 14.9195C108.642 15.3025 109.433 15.8353 110.099 16.518V14.5449H112.597V29.5307C112.597 31.1625 112.214 32.5612 111.448 33.7268C110.699 34.8924 109.708 35.7832 108.476 36.3993C107.244 37.0154 105.912 37.3234 104.48 37.3234ZM105.179 27.2829C106.128 27.2829 106.986 27.0498 107.752 26.5835C108.534 26.1006 109.15 25.4679 109.6 24.6853C110.066 23.8861 110.299 23.0036 110.299 22.0378C110.299 21.0721 110.066 20.1979 109.6 19.4153C109.15 18.616 108.534 17.9833 107.752 17.5171C106.986 17.0342 106.128 16.7928 105.179 16.7928C104.23 16.7928 103.364 17.0342 102.581 17.5171C101.815 17.9833 101.199 18.616 100.733 19.4153C100.284 20.1979 100.059 21.0721 100.059 22.0378C100.059 23.0036 100.284 23.8861 100.733 24.6853C101.199 25.4679 101.815 26.1006 102.581 26.5835C103.364 27.0498 104.23 27.2829 105.179 27.2829Z" fill="white"/>
<path d="M85.8667 37.707V32.5374H86.7283V33.2784C86.9179 32.997 87.1562 32.7873 87.4434 32.6494C87.7364 32.5058 88.0437 32.434 88.3653 32.434C88.7157 32.434 89.0374 32.5173 89.3303 32.6839C89.6233 32.8447 89.8588 33.0716 90.0368 33.3646C90.2379 33.0544 90.4964 32.8218 90.8123 32.6667C91.134 32.5116 91.4728 32.434 91.829 32.434C92.2196 32.434 92.5757 32.5259 92.8974 32.7098C93.2248 32.8936 93.4833 33.152 93.6728 33.4852C93.8681 33.8126 93.9657 34.2003 93.9657 34.6484V37.707H93.0352V34.7604C93.0352 34.2894 92.9002 33.9332 92.6303 33.692C92.366 33.445 92.0587 33.3215 91.7084 33.3215C91.4901 33.3215 91.2776 33.3703 91.0708 33.468C90.8697 33.5656 90.7032 33.7178 90.571 33.9246C90.4447 34.1314 90.3815 34.4014 90.3815 34.7345V37.707H89.451V34.7604C89.451 34.433 89.3849 34.163 89.2528 33.9505C89.1264 33.7379 88.9598 33.58 88.7531 33.4766C88.552 33.3674 88.3424 33.3129 88.1241 33.3129C87.9116 33.3129 87.7019 33.3617 87.4951 33.4593C87.2941 33.557 87.1275 33.7092 86.9954 33.916C86.8633 34.1228 86.7972 34.3956 86.7972 34.7345V37.707H85.8667Z" fill="white"/>
<path d="M81.8545 37.8104C81.3548 37.8104 80.8981 37.6898 80.4845 37.4486C80.071 37.2073 79.7407 36.8828 79.4937 36.4749C79.2525 36.0671 79.1318 35.6162 79.1318 35.1222C79.1318 34.6225 79.2525 34.1716 79.4937 33.7695C79.7407 33.3617 80.071 33.0372 80.4845 32.7959C80.8981 32.5547 81.3548 32.434 81.8545 32.434C82.36 32.434 82.8166 32.5547 83.2244 32.7959C83.638 33.0372 83.9654 33.3617 84.2067 33.7695C84.4537 34.1716 84.5772 34.6225 84.5772 35.1222C84.5772 35.6162 84.4537 36.0671 84.2067 36.4749C83.9654 36.8828 83.638 37.2073 83.2244 37.4486C82.8166 37.6898 82.36 37.8104 81.8545 37.8104ZM81.8545 36.9316C82.1876 36.9316 82.4892 36.8512 82.7592 36.6903C83.0291 36.5238 83.2445 36.3055 83.4054 36.0355C83.5662 35.7598 83.6466 35.4554 83.6466 35.1222C83.6466 34.7891 83.5662 34.4875 83.4054 34.2176C83.2445 33.9418 83.0291 33.7236 82.7592 33.5627C82.4892 33.3962 82.1876 33.3129 81.8545 33.3129C81.5213 33.3129 81.2198 33.3962 80.9498 33.5627C80.6798 33.7236 80.4644 33.9418 80.3036 34.2176C80.1428 34.4875 80.0624 34.7891 80.0624 35.1222C80.0624 35.4554 80.1428 35.7598 80.3036 36.0355C80.4644 36.3055 80.6798 36.5238 80.9498 36.6903C81.2198 36.8512 81.5213 36.9316 81.8545 36.9316Z" fill="white"/>
<path d="M76.4435 37.8104C75.938 37.8104 75.4785 37.6898 75.0649 37.4486C74.6514 37.2073 74.3211 36.8828 74.0741 36.4749C73.8271 36.0671 73.7036 35.6162 73.7036 35.1222C73.7036 34.6283 73.8271 34.1773 74.0741 33.7695C74.3211 33.3617 74.6514 33.0372 75.0649 32.7959C75.4785 32.5547 75.938 32.434 76.4435 32.434C76.8169 32.434 77.1672 32.5001 77.4947 32.6322C77.8221 32.7643 78.1093 32.9395 78.3563 33.1578L78.0719 34.3296C77.9283 34.0424 77.7101 33.8011 77.4171 33.6058C77.1299 33.4105 76.8025 33.3129 76.4349 33.3129C76.1017 33.3129 75.7973 33.3962 75.5216 33.5627C75.2516 33.7236 75.0362 33.9418 74.8754 34.2176C74.7146 34.4875 74.6341 34.7891 74.6341 35.1222C74.6341 35.4496 74.7146 35.7512 74.8754 36.0269C75.0362 36.3026 75.2516 36.5238 75.5216 36.6903C75.7973 36.8512 76.1017 36.9316 76.4349 36.9316C76.8025 36.9316 77.1299 36.8368 77.4171 36.6473C77.7101 36.4577 77.9283 36.2136 78.0719 35.9149L78.3563 37.0867C78.1093 37.305 77.8221 37.4802 77.4947 37.6123C77.1672 37.7444 76.8169 37.8104 76.4435 37.8104Z" fill="white"/>
<path d="M72.0754 37.8104C71.8858 37.8104 71.725 37.7472 71.5929 37.6209C71.4665 37.4888 71.4033 37.3279 71.4033 37.1384C71.4033 36.9488 71.4665 36.7909 71.5929 36.6645C71.725 36.5324 71.8858 36.4663 72.0754 36.4663C72.2707 36.4663 72.4315 36.5324 72.5579 36.6645C72.6842 36.7909 72.7474 36.9488 72.7474 37.1384C72.7474 37.3279 72.6842 37.4888 72.5579 37.6209C72.4315 37.7472 72.2707 37.8104 72.0754 37.8104Z" fill="white"/>
<path d="M80.4272 29.5307V14.5449H82.9249V16.9676C83.4744 16.0851 84.182 15.4107 85.0479 14.9445C85.9304 14.4783 86.8795 14.2452 87.8952 14.2452C88.9609 14.2452 89.9433 14.5116 90.8424 15.0444C91.7582 15.5606 92.4992 16.3182 93.0653 17.3173C93.6315 18.2997 93.9145 19.4985 93.9145 20.9139V29.5307H91.2171V21.2885C91.2171 20.1063 90.8591 19.0656 90.1431 18.1665C89.4437 17.2507 88.453 16.7928 87.1709 16.7928C86.1219 16.7928 85.1811 17.1757 84.3485 17.9417C83.5326 18.691 83.1247 19.7816 83.1247 21.2136V29.5307H80.4272Z" fill="white"/>
<path d="M67.8796 29.7306C66.5142 29.7306 65.2654 29.3892 64.1331 28.7065C63.0009 28.0072 62.0934 27.0747 61.4107 25.9092C60.7446 24.7436 60.4116 23.4531 60.4116 22.0378C60.4116 20.6225 60.7446 19.332 61.4107 18.1665C62.0934 17.0009 63.0009 16.0768 64.1331 15.3941C65.2654 14.6947 66.5142 14.3451 67.8796 14.3451C68.9119 14.3451 69.8777 14.5366 70.7768 14.9195C71.6927 15.3025 72.4836 15.8353 73.1496 16.518V14.5449H75.6473V29.5307H73.1496V27.5576C72.4836 28.2236 71.6927 28.7565 70.7768 29.1561C69.8777 29.5391 68.9119 29.7306 67.8796 29.7306ZM68.2293 27.2829C69.1784 27.2829 70.0359 27.0498 70.8018 26.5835C71.5844 26.1006 72.2005 25.4679 72.6501 24.6853C73.1163 23.8861 73.3494 23.0036 73.3494 22.0378C73.3494 21.0721 73.1163 20.1979 72.6501 19.4153C72.2005 18.616 71.5844 17.9833 70.8018 17.5171C70.0359 17.0342 69.1784 16.7928 68.2293 16.7928C67.2801 16.7928 66.4143 17.0342 65.6317 17.5171C64.8658 17.9833 64.2497 18.616 63.7834 19.4153C63.3339 20.1979 63.1091 21.0721 63.1091 22.0378C63.1091 23.0036 63.3339 23.8861 63.7834 24.6853C64.2497 25.4679 64.8658 26.1006 65.6317 26.5835C66.4143 27.0498 67.2801 27.2829 68.2293 27.2829Z" fill="white"/>
<path d="M51.9331 30.28L44.3652 14.5449H47.4373L50.4845 21.0388C50.7675 21.6215 51.0339 22.196 51.2837 22.7621C51.5335 23.3283 51.7749 24.0193 52.008 24.8352C52.2578 24.0193 52.5076 23.3283 52.7573 22.7621C53.0237 22.1793 53.2902 21.6049 53.5566 21.0388L56.6287 14.5449H59.501L51.9331 30.28Z" fill="white"/>
<path d="M33.9157 29.7306C32.5503 29.7306 31.3015 29.3892 30.1692 28.7065C29.037 28.0072 28.1295 27.0747 27.4468 25.9092C26.7808 24.7436 26.4478 23.4531 26.4478 22.0378C26.4478 20.6225 26.7808 19.332 27.4468 18.1665C28.1295 17.0009 29.037 16.0768 30.1692 15.3941C31.3015 14.6947 32.5503 14.3451 33.9157 14.3451C34.9481 14.3451 35.9138 14.5366 36.813 14.9195C37.7288 15.3025 38.5197 15.8353 39.1857 16.518V14.5449H41.6834V29.5307H39.1857V27.5576C38.5197 28.2236 37.7288 28.7565 36.813 29.1561C35.9138 29.5391 34.9481 29.7306 33.9157 29.7306ZM34.2654 27.2829C35.2145 27.2829 36.072 27.0498 36.838 26.5835C37.6205 26.1006 38.2366 25.4679 38.6862 24.6853C39.1524 23.8861 39.3856 23.0036 39.3856 22.0378C39.3856 21.0721 39.1524 20.1979 38.6862 19.4153C38.2366 18.616 37.6205 17.9833 36.838 17.5171C36.072 17.0342 35.2145 16.7928 34.2654 16.7928C33.3163 16.7928 32.4504 17.0342 31.6678 17.5171C30.9019 17.9833 30.2858 18.616 29.8196 19.4153C29.37 20.1979 29.1452 21.0721 29.1452 22.0378C29.1452 23.0036 29.37 23.8861 29.8196 24.6853C30.2858 25.4679 30.9019 26.1006 31.6678 26.5835C32.4504 27.0498 33.3163 27.2829 34.2654 27.2829Z" fill="white"/>
<path d="M20.0155 29.5307V14.5449H22.7129V29.5307H20.0155ZM21.3642 11.8474C20.8647 11.8474 20.4401 11.6726 20.0904 11.3229C19.7408 10.9732 19.5659 10.5486 19.5659 10.0491C19.5659 9.53294 19.7408 9.10834 20.0904 8.77532C20.4401 8.42565 20.8647 8.25081 21.3642 8.25081C21.8804 8.25081 22.305 8.42565 22.638 8.77532C22.9877 9.10834 23.1625 9.53294 23.1625 10.0491C23.1625 10.5486 22.9877 10.9732 22.638 11.3229C22.305 11.6726 21.8804 11.8474 21.3642 11.8474Z" fill="white"/>
<path d="M7.11829 37.3234C5.96937 37.3234 4.92036 37.1569 3.97126 36.8239C3.0388 36.4908 2.20625 36.0329 1.47361 35.4502L2.2229 32.403C2.72243 33.119 3.38847 33.7018 4.22102 34.1514C5.05357 34.601 6.011 34.8258 7.09331 34.8258C8.77506 34.8258 10.1321 34.3179 11.1645 33.3022C12.2135 32.2865 12.738 30.9794 12.738 29.3809V27.5576C12.0719 28.2236 11.281 28.7565 10.3652 29.1561C9.46607 29.5391 8.50032 29.7306 7.46796 29.7306C6.10258 29.7306 4.85376 29.3892 3.72149 28.7065C2.58922 28.0072 1.68175 27.0747 0.999058 25.9092C0.333019 24.7436 0 23.4531 0 22.0378C0 20.6225 0.333019 19.332 0.999058 18.1665C1.68175 17.0009 2.58922 16.0768 3.72149 15.3941C4.85376 14.6947 6.10258 14.3451 7.46796 14.3451C8.50032 14.3451 9.46607 14.5366 10.3652 14.9195C11.281 15.3025 12.0719 15.8353 12.738 16.518V14.5449H15.2356V29.5307C15.2356 31.1625 14.8527 32.5612 14.0867 33.7268C13.3374 34.8924 12.3467 35.7832 11.1145 36.3993C9.88235 37.0154 8.55027 37.3234 7.11829 37.3234ZM7.81763 27.2829C8.76673 27.2829 9.62426 27.0498 10.3902 26.5835C11.1728 26.1006 11.7889 25.4679 12.2385 24.6853C12.7047 23.8861 12.9378 23.0036 12.9378 22.0378C12.9378 21.0721 12.7047 20.1979 12.2385 19.4153C11.7889 18.616 11.1728 17.9833 10.3902 17.5171C9.62426 17.0342 8.76673 16.7928 7.81763 16.7928C6.86852 16.7928 6.00267 17.0342 5.22008 17.5171C4.45413 17.9833 3.83805 18.616 3.37182 19.4153C2.92224 20.1979 2.69746 21.0721 2.69746 22.0378C2.69746 23.0036 2.92224 23.8861 3.37182 24.6853C3.83805 25.4679 4.45413 26.1006 5.22008 26.5835C6.00267 27.0498 6.86852 27.2829 7.81763 27.2829Z" fill="white"/>
<path d="M141.416 5.19107C146.909 5.19107 151.363 9.64413 151.363 15.1374V17.6657C151.308 17.5528 151.25 17.4423 151.188 17.3346C150.621 16.3357 149.881 15.5783 148.965 15.0622C148.066 14.5293 147.083 14.2624 146.018 14.2624C145.002 14.2624 144.053 14.4955 143.171 14.9616C142.305 15.4278 141.597 16.1026 141.048 16.985V14.5622H138.55V29.5485H141.247V21.2311C141.247 19.7991 141.655 18.7079 142.471 17.9586C143.303 17.1927 144.245 16.8102 145.294 16.8102C146.576 16.8103 147.566 17.2685 148.266 18.1842C148.982 19.0833 149.34 20.1242 149.34 21.3063V29.5485H151.337C150.984 34.7217 146.679 38.8092 141.416 38.8092H127.691C122.198 38.809 117.745 34.3553 117.745 28.862V15.1374C117.745 12.4385 118.821 9.99182 120.566 8.19986V29.5485H123.265V21.2311C123.265 19.7991 123.672 18.7079 124.488 17.9586C125.321 17.1929 126.262 16.8102 127.311 16.8102C128.593 16.8102 129.583 17.2685 130.282 18.1842C130.998 19.0834 131.356 20.1241 131.356 21.3063V29.5485H134.054V20.9313C134.054 19.516 133.771 18.317 133.205 17.3346C132.639 16.3357 131.898 15.5783 130.982 15.0622C130.083 14.5294 129.101 14.2624 128.035 14.2624C127.086 14.2624 126.195 14.4711 125.362 14.8874C124.53 15.3036 123.831 15.9028 123.265 16.6852V6.23013C124.598 5.56615 126.101 5.19113 127.691 5.19107H141.416Z" fill="#FFC400"/>
</svg>
